<svg id="Ebene_1" data-name="Ebene 1" xmlns="http://www.w3.org/2000/svg" viewBox="0 0 555.76 80"><polygon points="14.28 0 0 0 0 78.81 48.98 78.81 48.98 66.84 14.28 66.84 14.28 0" style="fill:#282725"/><path d="M96.83,23.22a24.39,24.39,0,0,0-7.74-3.29,37.17,37.17,0,0,0-8.5-1,33.37,33.37,0,0,0-11.31,1.83,22.39,22.39,0,0,0-8.66,5.46,21,21,0,0,0-5.08,9l13,1.85a11,11,0,0,1,4-5.28,13.25,13.25,0,0,1,8.1-2.23q4.85,0,7.42,2.39a8.7,8.7,0,0,1,2.58,6.73v.23a3.24,3.24,0,0,1-1.48,3,12.31,12.31,0,0,1-4.71,1.38c-2.16.3-5,.62-8.43,1a60.09,60.09,0,0,0-8.33,1.48,25.82,25.82,0,0,0-7.22,3,14.21,14.21,0,0,0-5,5.23,16.68,16.68,0,0,0-1.84,8.27A17.49,17.49,0,0,0,56.21,72a16.25,16.25,0,0,0,7.08,6,24.29,24.29,0,0,0,10.1,2,23,23,0,0,0,8.07-1.29,16.79,16.79,0,0,0,9.29-8h.46v8.12H104.6V39.25a20.35,20.35,0,0,0-2.13-9.81A17.06,17.06,0,0,0,96.83,23.22ZM90.71,57.6a11.53,11.53,0,0,1-1.67,6,12.31,12.31,0,0,1-4.76,4.44A14.93,14.93,0,0,1,77,69.76a12.22,12.22,0,0,1-7.16-2A6.63,6.63,0,0,1,67,62a6.65,6.65,0,0,1,1.43-4.4,9.27,9.27,0,0,1,3.88-2.68,24.5,24.5,0,0,1,5.58-1.38l3.28-.47c1.25-.18,2.52-.38,3.8-.61a31.78,31.78,0,0,0,3.49-.81,6.58,6.58,0,0,0,2.21-1Z" style="fill:#282725"/><path d="M153.75,29.48h-.57a26.11,26.11,0,0,0-3-4.6,16.54,16.54,0,0,0-5.31-4.2,18.49,18.49,0,0,0-8.55-1.75,22.76,22.76,0,0,0-12.35,3.48,24,24,0,0,0-8.79,10.28q-3.26,6.8-3.25,16.64t3.19,16.55a24.35,24.35,0,0,0,8.7,10.39,22.41,22.41,0,0,0,12.47,3.58,18.56,18.56,0,0,0,8.42-1.7,17.08,17.08,0,0,0,5.39-4.09,23.56,23.56,0,0,0,3.12-4.57H154v9.32h13.7V0h-14ZM152.41,59.3A14.78,14.78,0,0,1,147.67,66a11.92,11.92,0,0,1-7.54,2.41,12.06,12.06,0,0,1-7.71-2.48,15.2,15.2,0,0,1-4.74-6.82,28.46,28.46,0,0,1-1.59-9.87,28.17,28.17,0,0,1,1.57-9.77,14.67,14.67,0,0,1,4.7-6.69,13.55,13.55,0,0,1,15.37-.08,14.36,14.36,0,0,1,4.7,6.58,28.28,28.28,0,0,1,1.59,10A28.75,28.75,0,0,1,152.41,59.3Z" style="fill:#282725"/><path d="M217.72,29.48h-.58a26.11,26.11,0,0,0-3-4.6,16.32,16.32,0,0,0-5.31-4.2,18.45,18.45,0,0,0-8.54-1.75,22.73,22.73,0,0,0-12.35,3.48,23.91,23.91,0,0,0-8.79,10.28q-3.26,6.8-3.26,16.64t3.2,16.55a24.4,24.4,0,0,0,8.69,10.39,22.43,22.43,0,0,0,12.47,3.58,18.57,18.57,0,0,0,8.43-1.7A17.08,17.08,0,0,0,214,74.06a23.47,23.47,0,0,0,3.11-4.57H218v9.32h13.7V0h-14ZM216.37,59.3A14.69,14.69,0,0,1,211.64,66a11.94,11.94,0,0,1-7.54,2.41,12.09,12.09,0,0,1-7.72-2.48,15.11,15.11,0,0,1-4.73-6.82,28.46,28.46,0,0,1-1.6-9.87,28.16,28.16,0,0,1,1.58-9.77,14.59,14.59,0,0,1,4.7-6.69,13.55,13.55,0,0,1,15.37-.08,14.35,14.35,0,0,1,4.69,6.58,28,28,0,0,1,1.6,10A28.51,28.51,0,0,1,216.37,59.3Z" style="fill:#282725"/><path d="M286.63,26.09A23.69,23.69,0,0,0,278,20.68a30.45,30.45,0,0,0-10.33-1.75,27.51,27.51,0,0,0-14.74,3.87,26.24,26.24,0,0,0-9.75,10.77,35.2,35.2,0,0,0-3.48,16,35.16,35.16,0,0,0,3.46,16.1,24.83,24.83,0,0,0,9.91,10.55A30.27,30.27,0,0,0,268.41,80a33.34,33.34,0,0,0,12.24-2.1,22.69,22.69,0,0,0,8.79-5.92,20.19,20.19,0,0,0,4.68-9l-13-1.46a10.75,10.75,0,0,1-2.73,4.2,12,12,0,0,1-4.27,2.55,16.44,16.44,0,0,1-5.5.87,15.72,15.72,0,0,1-7.93-1.94,13.27,13.27,0,0,1-5.27-5.62,18.85,18.85,0,0,1-1.88-8.49h41.16V48.79a37.49,37.49,0,0,0-2.15-13.41A25.48,25.48,0,0,0,286.63,26.09Zm-33,17.59a15.29,15.29,0,0,1,1.77-6.45,14.35,14.35,0,0,1,5-5.39,13.7,13.7,0,0,1,7.5-2.06,13.5,13.5,0,0,1,7,1.81,12.74,12.74,0,0,1,4.71,4.95,15,15,0,0,1,1.73,7.14Z" style="fill:#282725"/><path d="M330.84,18.86a15.22,15.22,0,0,0-9,2.79,14.75,14.75,0,0,0-5.56,7.9h-.62V19.7H302.13V78.81h13.93V44.06a12.67,12.67,0,0,1,1.74-6.66,12.16,12.16,0,0,1,4.75-4.52,14.1,14.1,0,0,1,6.83-1.63,27.61,27.61,0,0,1,3.67.25,15.34,15.34,0,0,1,2.79.55V19.24a19.72,19.72,0,0,0-2.4-.29C332.48,18.89,331.61,18.86,330.84,18.86Z" style="fill:#282725"/><polygon points="425.25 0 411.05 57.95 410.35 57.95 395.15 0 381.19 0 366.02 57.91 365.29 57.91 351.09 0 335.74 0 357.98 78.81 372.07 78.81 387.88 23.51 388.5 23.51 404.27 78.81 418.36 78.81 440.6 0 425.25 0" style="fill:#282725"/><path d="M483.84,26.09a23.69,23.69,0,0,0-8.62-5.41,30.45,30.45,0,0,0-10.33-1.75,27.54,27.54,0,0,0-14.74,3.87,26.24,26.24,0,0,0-9.75,10.77,35.2,35.2,0,0,0-3.48,16,35.16,35.16,0,0,0,3.46,16.1,24.83,24.83,0,0,0,9.91,10.55A30.27,30.27,0,0,0,465.62,80a33.3,33.3,0,0,0,12.24-2.1,22.62,22.62,0,0,0,8.79-5.92,20.19,20.19,0,0,0,4.68-9l-13-1.46a10.64,10.64,0,0,1-2.73,4.2,12,12,0,0,1-4.27,2.55,16.44,16.44,0,0,1-5.5.87,15.72,15.72,0,0,1-7.93-1.94,13.27,13.27,0,0,1-5.27-5.62,18.85,18.85,0,0,1-1.88-8.49h41.17V48.79a37.48,37.48,0,0,0-2.16-13.41A25.48,25.48,0,0,0,483.84,26.09Zm-33,17.59a15.29,15.29,0,0,1,1.77-6.45,14.35,14.35,0,0,1,5-5.39,13.7,13.7,0,0,1,7.5-2.06,13.5,13.5,0,0,1,7,1.81,12.74,12.74,0,0,1,4.71,4.95,15,15,0,0,1,1.73,7.14Z" style="fill:#282725"/><path d="M552.51,32.69a24.09,24.09,0,0,0-8.78-10.28,22.71,22.71,0,0,0-12.37-3.48,18.45,18.45,0,0,0-8.54,1.75,16.54,16.54,0,0,0-5.31,4.2,26.11,26.11,0,0,0-3,4.6h-.58V0H500V78.81h13.7V69.49h.81a25.6,25.6,0,0,0,3.13,4.57A16.88,16.88,0,0,0,523,78.15a18.57,18.57,0,0,0,8.43,1.7,22.43,22.43,0,0,0,12.47-3.58,24.4,24.4,0,0,0,8.69-10.39q3.2-6.81,3.2-16.55T552.51,32.69ZM540,59.12a15.15,15.15,0,0,1-4.71,6.82,12.07,12.07,0,0,1-7.74,2.48A11.84,11.84,0,0,1,520,66a14.92,14.92,0,0,1-4.73-6.71,28.27,28.27,0,0,1-1.64-10,28,28,0,0,1,1.6-10,14.24,14.24,0,0,1,4.71-6.58,13.54,13.54,0,0,1,15.36.08A14.65,14.65,0,0,1,540,39.48a28.16,28.16,0,0,1,1.58,9.77A28.22,28.22,0,0,1,540,59.12Z" style="fill:#282725"/></svg>