<svg id="Ebene_1" data-name="Ebene 1" xmlns="http://www.w3.org/2000/svg" viewBox="0 0 590.24 80.28"><polygon points="14.14 1.07 0 1.07 0 79.1 48.51 79.1 48.51 67.25 14.14 67.25 14.14 1.07" style="fill:#282725"/><path d="M480.94,305.11a24.16,24.16,0,0,0-7.65-3.26,36.63,36.63,0,0,0-8.43-1,33.26,33.26,0,0,0-11.2,1.81,22.21,22.21,0,0,0-8.57,5.41,20.71,20.71,0,0,0-5,8.94l12.88,1.83a10.85,10.85,0,0,1,4-5.22,13.12,13.12,0,0,1,8-2.21q4.8,0,7.35,2.36a8.62,8.62,0,0,1,2.56,6.67v.23a3.2,3.2,0,0,1-1.47,2.91,12.1,12.1,0,0,1-4.67,1.37c-2.13.3-4.91.62-8.34,1a58.68,58.68,0,0,0-8.25,1.46,25.62,25.62,0,0,0-7.15,3,14.17,14.17,0,0,0-5,5.18,16.49,16.49,0,0,0-1.83,8.19,17.25,17.25,0,0,0,2.58,9.68,16.06,16.06,0,0,0,7,5.92,24,24,0,0,0,10,2,22.73,22.73,0,0,0,8-1.27,16.79,16.79,0,0,0,5.68-3.39,16.55,16.55,0,0,0,3.52-4.56h.46v8h13.26V321a20.13,20.13,0,0,0-2.11-9.71A16.66,16.66,0,0,0,480.94,305.11Zm-6.05,34.05a11.4,11.4,0,0,1-1.66,6,12.14,12.14,0,0,1-4.71,4.4,14.79,14.79,0,0,1-7.2,1.66,12.09,12.09,0,0,1-7.09-1.95,7.38,7.38,0,0,1-1.37-10.11,9.29,9.29,0,0,1,3.85-2.65,24.45,24.45,0,0,1,5.53-1.37l3.23-.46c1.25-.18,2.51-.38,3.78-.61a30.86,30.86,0,0,0,3.44-.8,6.43,6.43,0,0,0,2.2-1Z" transform="translate(-385.06 -281.05)" style="fill:#282725"/><path d="M537.31,311.3h-.57a25.58,25.58,0,0,0-3-4.55,16.32,16.32,0,0,0-5.26-4.15,18.13,18.13,0,0,0-8.46-1.74,22.52,22.52,0,0,0-12.23,3.45,23.63,23.63,0,0,0-8.7,10.18q-3.22,6.72-3.22,16.48T499,347.35a24.14,24.14,0,0,0,8.61,10.29A22.17,22.17,0,0,0,520,361.18a18.37,18.37,0,0,0,8.34-1.68,16.72,16.72,0,0,0,5.33-4.05,23.08,23.08,0,0,0,3.09-4.52h.84v9.22h13.56v-78H537.31ZM536,340.83a14.59,14.59,0,0,1-4.69,6.65,13,13,0,0,1-15.11-.07,14.93,14.93,0,0,1-4.68-6.75,30.9,30.9,0,0,1,0-19.45,14.5,14.5,0,0,1,4.65-6.63,13.45,13.45,0,0,1,15.22-.08A14.35,14.35,0,0,1,536,321a31.65,31.65,0,0,1,0,19.81Z" transform="translate(-385.06 -281.05)" style="fill:#282725"/><path d="M600.65,311.3h-.57a25.58,25.58,0,0,0-3-4.55,16.21,16.21,0,0,0-5.26-4.15,18.13,18.13,0,0,0-8.46-1.74,22.52,22.52,0,0,0-12.23,3.45,23.7,23.7,0,0,0-8.7,10.18q-3.23,6.72-3.22,16.48t3.16,16.38A24.14,24.14,0,0,0,571,357.64a22.17,22.17,0,0,0,12.35,3.54,18.37,18.37,0,0,0,8.34-1.68,16.88,16.88,0,0,0,5.34-4.05,23.44,23.44,0,0,0,3.08-4.52h.84v9.22h13.56v-78H600.65Zm-1.33,29.53a14.59,14.59,0,0,1-4.69,6.65,11.82,11.82,0,0,1-7.47,2.38,11.94,11.94,0,0,1-7.64-2.45,14.93,14.93,0,0,1-4.68-6.75,30.9,30.9,0,0,1,0-19.45,14.5,14.5,0,0,1,4.65-6.63,13.45,13.45,0,0,1,15.22-.08,14.35,14.35,0,0,1,4.65,6.52,31.65,31.65,0,0,1,0,19.81Z" transform="translate(-385.06 -281.05)" style="fill:#282725"/><path d="M668.89,308a23.49,23.49,0,0,0-8.53-5.35,30,30,0,0,0-10.24-1.74,27.28,27.28,0,0,0-14.59,3.83,26,26,0,0,0-9.66,10.67,38.51,38.51,0,0,0,0,31.82,24.59,24.59,0,0,0,9.82,10.44,29.89,29.89,0,0,0,15.18,3.68A33.14,33.14,0,0,0,663,359.22a22.55,22.55,0,0,0,8.7-5.87,19.94,19.94,0,0,0,4.63-8.9L663.42,343a10.68,10.68,0,0,1-2.7,4.15,11.9,11.9,0,0,1-4.23,2.53,16.4,16.4,0,0,1-5.45.86,15.53,15.53,0,0,1-7.85-1.92,13.15,13.15,0,0,1-5.22-5.57,18.72,18.72,0,0,1-1.86-8.4h40.76v-4.23a37.25,37.25,0,0,0-2.13-13.28A25.07,25.07,0,0,0,668.89,308Zm-32.73,17.41a15.15,15.15,0,0,1,1.75-6.38,14.22,14.22,0,0,1,5-5.33,13.51,13.51,0,0,1,7.43-2,13.32,13.32,0,0,1,6.95,1.79,12.58,12.58,0,0,1,4.67,4.9,15,15,0,0,1,1.71,7.06Z" transform="translate(-385.06 -281.05)" style="fill:#282725"/><path d="M712.67,300.79a15.09,15.09,0,0,0-8.94,2.76,14.68,14.68,0,0,0-5.51,7.83h-.6v-9.75H684.24v58.52H698v-34.4a12.63,12.63,0,0,1,1.72-6.6,12.11,12.11,0,0,1,4.7-4.47,14,14,0,0,1,6.77-1.62,28.87,28.87,0,0,1,3.64.24,15.1,15.1,0,0,1,2.76.56V301.17a19.59,19.59,0,0,0-2.38-.29C714.29,300.82,713.43,300.79,712.67,300.79Z" transform="translate(-385.06 -281.05)" style="fill:#282725"/><path d="M784.52,320.14v-.61a18.32,18.32,0,0,0,10.23-5.83,16,16,0,0,0,3.86-11.05,19.66,19.66,0,0,0-3.16-10.86,22.43,22.43,0,0,0-8.93-7.83,29.85,29.85,0,0,0-13.59-2.91,32.39,32.39,0,0,0-13.68,2.8,24.44,24.44,0,0,0-9.73,7.77,19.79,19.79,0,0,0-3.79,11.53h13.6a9.53,9.53,0,0,1,2-5.66,12.11,12.11,0,0,1,4.92-3.68,16.82,16.82,0,0,1,6.63-1.29,14.11,14.11,0,0,1,6.38,1.37,10.34,10.34,0,0,1,4.23,3.83,10.57,10.57,0,0,1,1.46,5.77,10.11,10.11,0,0,1-1.71,6,11.56,11.56,0,0,1-4.82,4,17,17,0,0,1-7.14,1.41h-6.9v10.9h6.9a21.2,21.2,0,0,1,8.47,1.52,12.27,12.27,0,0,1,5.39,4.23,10.46,10.46,0,0,1,1.83,6.25,10.14,10.14,0,0,1-1.79,6.06,12.14,12.14,0,0,1-5.06,4.09,17.82,17.82,0,0,1-7.43,1.47,18.43,18.43,0,0,1-7.09-1.3,12.36,12.36,0,0,1-5.07-3.64,9.32,9.32,0,0,1-2.09-5.5H744.09A20.35,20.35,0,0,0,748,350.55a24.55,24.55,0,0,0,10.08,7.85,39.25,39.25,0,0,0,29.49-.11,24.86,24.86,0,0,0,10.21-8.1,19.55,19.55,0,0,0,3.72-11.72,17.62,17.62,0,0,0-4.36-12.25Q792.74,321.28,784.52,320.14Z" transform="translate(-385.06 -281.05)" style="fill:#282725"/><path d="M856.14,296.92a20.27,20.27,0,0,1,11.28-3.18,22.2,22.2,0,0,1,6.68,1,17.45,17.45,0,0,1,5.55,2.88,16.78,16.78,0,0,1,4.07,4.63,17.59,17.59,0,0,1,2.25,6.23h14.25a32.41,32.41,0,0,0-3.71-11.61,29.3,29.3,0,0,0-7.22-8.61,31.2,31.2,0,0,0-10-5.35,38.76,38.76,0,0,0-12.11-1.83,35.36,35.36,0,0,0-18.29,4.76,33.59,33.59,0,0,0-12.77,13.74q-4.68,9-4.68,21.58t4.64,21.57a33.3,33.3,0,0,0,12.73,13.76,35.55,35.55,0,0,0,18.37,4.76,36.88,36.88,0,0,0,12.69-2.08,31.22,31.22,0,0,0,10-5.79,30.9,30.9,0,0,0,10.36-19L886,334.24a17.16,17.16,0,0,1-2.34,6.1,16.54,16.54,0,0,1-4.16,4.49A17.79,17.79,0,0,1,874,347.6a22.53,22.53,0,0,1-6.57.93,20.48,20.48,0,0,1-11.22-3.1,20.8,20.8,0,0,1-7.7-9.23q-2.81-6.1-2.8-15.07a35.79,35.79,0,0,1,2.78-14.91A21.08,21.08,0,0,1,856.14,296.92Z" transform="translate(-385.06 -281.05)" style="fill:#282725"/><path d="M960.21,360.15H975.3l-27.51-78H930.34l-27.47,78H918l6.46-19.24h29.34Zm-32-30.59,10.54-31.44h.61l10.56,31.44Z" transform="translate(-385.06 -281.05)" style="fill:#282725"/></svg>